<svg width="24" height="24" viewBox="0 0 24 24" fill="none" xmlns="http://www.w3.org/2000/svg">
<path d="M23.7895 0H0.210526C0.0942558 0 0 0.0942558 0 0.210526V23.7895C0 23.9057 0.0942558 24 0.210526 24H23.7895C23.9057 24 24 23.9057 24 23.7895V0.210526C24 0.0942558 23.9057 0 23.7895 0Z" fill="#4E4E4E"/>
<path d="M22.1054 12.4219H8.26326C8.14699 12.4219 8.05273 12.5161 8.05273 12.6324V20.3692C8.05273 20.4855 8.14699 20.5798 8.26326 20.5798H22.1054C22.2216 20.5798 22.3159 20.4855 22.3159 20.3692V12.6324C22.3159 12.5161 22.2216 12.4219 22.1054 12.4219Z" fill="#6B6B6B"/>
<path d="M5.72603 3.20703C6.4115 3.20703 7.0105 3.34598 7.52308 3.62387C8.04182 3.89559 8.44013 4.27847 8.71803 4.77251C8.99592 5.26656 9.13487 5.83161 9.13487 6.46766C9.13487 7.09756 8.99282 7.65951 8.70877 8.15356C8.43087 8.64761 8.03255 9.03666 7.51382 9.32072C7.00124 9.59861 6.40534 9.73756 5.72603 9.73756H3.1416V3.20703H5.72603ZM5.58708 8.13503C6.11819 8.13503 6.53503 7.98993 6.83761 7.69966C7.14019 7.4094 7.2915 6.99877 7.2915 6.46766C7.2915 5.9304 7.14019 5.51666 6.83761 5.2264C6.53503 4.92998 6.11819 4.78177 5.58708 4.78177H4.95718V8.13503H5.58708ZM11.7689 4.66135V5.72661H13.8531V7.10682H11.7689V8.28324H14.131V9.73756H9.95329V3.20703H14.131V4.66135H11.7689ZM21.3827 3.20703L19.1317 9.73756H16.8067L14.5464 3.20703H16.4917L17.9738 7.92198L19.4467 3.20703H21.3827Z" fill="white"/>
<path d="M17.5993 19.7887L18.8684 17.9453L19.9522 19.7887H22.0178L19.8966 16.4447L22.092 13.2581H19.9522L18.7202 15.0552L17.6642 13.2581H15.5985L17.692 16.5466L15.4595 19.7887H17.5993ZM11.7056 19.8535C12.317 19.8535 12.8789 19.7115 13.3915 19.4274C13.9041 19.1371 14.3116 18.7388 14.6142 18.2325C14.9106 17.7199 15.0589 17.1425 15.0589 16.5003C15.0589 15.858 14.9106 15.2837 14.6142 14.7773C14.3116 14.2647 13.9041 13.8664 13.3915 13.5824C12.8789 13.2983 12.317 13.1562 11.7056 13.1562C11.0881 13.1562 10.5261 13.2983 10.0197 13.5824C9.50711 13.8664 9.10264 14.2647 8.80622 14.7773C8.5098 15.2837 8.36159 15.858 8.36159 16.5003C8.36159 17.1425 8.5098 17.7199 8.80622 18.2325C9.10264 18.7388 9.50711 19.1371 10.0197 19.4274C10.5323 19.7115 11.0942 19.8535 11.7056 19.8535ZM11.7056 18.1676C11.2424 18.1676 10.8781 18.0163 10.6125 17.7137C10.3408 17.4111 10.205 17.0066 10.205 16.5003C10.205 15.9815 10.3408 15.5739 10.6125 15.2775C10.8781 14.9749 11.2424 14.8236 11.7056 14.8236C12.1749 14.8236 12.5424 14.9749 12.8079 15.2775C13.0734 15.5739 13.2062 15.9815 13.2062 16.5003C13.2062 17.0128 13.0734 17.4204 12.8079 17.723C12.5424 18.0194 12.1749 18.1676 11.7056 18.1676ZM3.37699 16.4354C2.99412 16.5219 2.69152 16.7133 2.4692 17.0097C2.24071 17.3 2.12646 17.6335 2.12646 18.0101C2.12646 18.5659 2.31791 19.0013 2.70078 19.3163C3.08366 19.6312 3.62092 19.7887 4.31257 19.7887H7.54543V13.2581H4.41447C3.74752 13.2581 3.2257 13.4064 2.84899 13.7028C2.46612 13.9992 2.27468 14.416 2.27468 14.9533C2.27468 15.3362 2.37657 15.6573 2.58036 15.9167C2.77798 16.1699 3.04352 16.3428 3.37699 16.4354ZM5.72985 15.8518H4.81278C4.3558 15.8518 4.12731 15.6635 4.12731 15.2868C4.12731 14.8977 4.3558 14.7032 4.81278 14.7032H5.72985V15.8518ZM4.67383 18.3251C4.21685 18.3251 3.98836 18.1337 3.98836 17.7508C3.98836 17.5531 4.05012 17.4019 4.17362 17.2969C4.29096 17.1919 4.46078 17.1394 4.6831 17.1394H5.72985V18.3251H4.67383Z" fill="white"/>
<path d="M3.10522 10.8008H7.7368" stroke="#FFB440"/>
</svg>
